<?xml version="1.0" standalone="no"?>
<!DOCTYPE svg PUBLIC "-//W3C//DTD SVG 20010904//EN"
 "http://www.w3.org/TR/2001/REC-SVG-20010904/DTD/svg10.dtd">
<svg version="1.0" xmlns="http://www.w3.org/2000/svg"
 width="512.000000pt" height="512.000000pt" viewBox="0 0 512.000000 512.000000"
 preserveAspectRatio="xMidYMid meet">
<metadata>
Created by potrace 1.14, written by Peter Selinger 2001-2017
</metadata>
<g transform="translate(0.000000,512.000000) scale(0.100000,-0.100000)"
fill="#000000" stroke="none">
<path d="M708 4928 c-21 -17 -51 -124 -44 -154 4 -14 16 -26 30 -30 43 -10 60
9 79 88 18 73 18 73 -4 91 -25 20 -40 21 -61 5z"/>
<path d="M457 4782 c-18 -19 -22 -49 -9 -68 7 -11 31 -21 69 -28 10 -2 30 -7
45 -11 37 -9 65 1 72 28 9 35 -17 61 -75 76 -30 7 -61 15 -70 17 -9 2 -23 -4
-32 -14z"/>
<path d="M749 4701 c-20 -16 -22 -23 -14 -46 8 -22 22 -31 74 -47 93 -28 132
-13 117 47 -6 24 -9 26 -137 61 -9 2 -27 -4 -40 -15z"/>
<path d="M632 4633 c-28 -24 -57 -136 -42 -163 12 -23 61 -27 78 -7 6 7 18 43
28 81 l17 69 -24 18 c-30 23 -32 23 -57 2z"/>
<path d="M3849 4576 c-2 -2 -49 -6 -104 -10 -55 -3 -112 -8 -128 -11 -15 -2
-53 -9 -85 -15 -82 -15 -90 -16 -162 -35 -207 -54 -420 -148 -589 -259 -47
-31 -95 -56 -107 -56 -38 0 -64 37 -60 84 7 61 15 102 26 132 6 15 9 29 6 31
-6 7 -200 -44 -301 -79 -463 -158 -792 -440 -974 -833 -27 -58 -86 -213 -97
-255 -2 -8 -19 -76 -38 -151 -19 -75 -41 -150 -50 -166 -41 -81 -136 -43 -167
66 -7 25 -13 83 -14 128 0 46 -1 83 -2 83 -8 0 -144 -186 -197 -269 -108 -171
-237 -448 -214 -462 6 -4 37 -1 69 7 66 15 82 12 96 -19 10 -22 -2 -67 -17
-67 -15 0 -81 -74 -102 -113 -23 -46 -27 -133 -8 -196 22 -76 -53 -111 -105
-50 -14 17 -29 28 -33 24 -4 -3 -6 -86 -6 -183 1 -157 9 -239 39 -397 11 -64
88 -286 97 -283 5 2 33 49 63 104 131 250 371 638 499 810 17 23 38 52 46 64
17 26 224 292 257 330 12 14 31 36 43 50 386 451 825 804 1290 1036 133 66
160 70 204 32 30 -27 38 -73 20 -109 -7 -15 -48 -48 -91 -75 -143 -89 -394
-276 -522 -389 -117 -103 -172 -155 -304 -288 -383 -386 -753 -874 -1094
-1442 -147 -244 -168 -283 -161 -290 26 -26 358 -25 503 1 126 23 345 88 443
132 l42 19 -55 37 c-83 55 -135 105 -135 130 0 47 19 57 140 71 142 17 153 20
265 51 348 97 650 301 833 563 l44 62 -29 -6 c-15 -3 -86 -6 -158 -6 -264 -1
-430 62 -385 146 14 27 44 38 180 70 91 21 341 95 355 104 6 4 28 13 50 20
117 40 346 171 445 257 55 47 142 137 180 184 l28 35 -102 0 c-126 1 -194 18
-207 53 -30 78 222 422 544 746 64 64 95 102 88 109 -5 5 -33 17 -63 27 -41
13 -55 23 -63 44 -12 35 11 57 87 80 39 11 70 29 98 57 42 42 50 56 80 144 32
93 99 94 121 1 16 -71 37 -110 52 -98 116 89 157 119 237 172 52 34 132 80
178 102 45 22 82 41 82 43 0 8 -289 99 -350 110 -14 2 -50 9 -80 15 -30 6 -68
13 -85 15 -16 3 -55 8 -85 13 -30 4 -107 9 -170 11 -63 1 -117 4 -121 6 -3 3
-8 3 -10 1z"/>
<path d="M4110 4015 c-12 -19 -39 -49 -61 -66 l-40 -32 43 -41 c24 -23 52 -55
63 -70 l20 -28 33 44 c18 23 48 54 67 67 l35 23 -38 27 c-20 15 -50 46 -66 69
-16 23 -30 42 -32 42 -1 0 -12 -16 -24 -35z"/>
<path d="M2775 3482 c-106 -58 -173 -98 -260 -155 -92 -61 -306 -216 -315
-228 -3 -4 -23 -21 -44 -38 -227 -181 -546 -521 -790 -844 -83 -110 -356 -510
-356 -521 0 -3 -22 -40 -48 -83 -108 -173 -336 -604 -415 -783 -9 -19 -32 -70
-51 -113 -20 -42 -36 -81 -36 -85 0 -4 -7 -20 -16 -37 -25 -48 -144 -352 -144
-369 0 -22 20 -30 34 -15 7 8 23 39 35 69 55 134 296 624 386 785 314 562 650
1057 975 1435 12 14 40 47 63 75 240 285 647 660 922 850 137 94 150 106 60
57z"/>
<path d="M4248 3133 c-11 -13 -17 -48 -20 -123 -4 -92 -8 -113 -36 -170 -33
-70 -81 -123 -158 -174 -41 -27 -49 -36 -47 -61 1 -15 6 -32 11 -37 5 -5 51
-11 102 -13 79 -3 101 -8 155 -34 74 -37 132 -91 181 -172 42 -67 75 -82 107
-50 17 17 20 34 21 123 1 96 4 109 33 169 37 75 74 113 163 167 49 29 66 45
68 64 5 44 -21 59 -96 55 -171 -9 -281 51 -372 203 -18 30 -38 58 -44 62 -19
13 -52 9 -68 -9z"/>
<path d="M381 2403 c-6 -32 -18 -71 -26 -87 -15 -28 -20 -55 -9 -43 12 11 154
-40 154 -56 0 -5 5 -5 10 -2 6 3 10 20 10 36 0 16 11 56 24 89 23 57 24 60 6
60 -28 0 -112 30 -131 46 -8 8 -18 14 -21 14 -3 0 -11 -26 -17 -57z"/>
<path d="M3175 1436 c-9 -13 -21 -49 -28 -81 -11 -52 -10 -58 8 -71 41 -30 73
-9 93 62 15 53 15 87 0 102 -20 20 -56 14 -73 -12z"/>
<path d="M2946 1307 c-26 -39 -10 -64 49 -82 71 -20 112 -19 123 3 20 40 -1
66 -70 86 -74 21 -85 20 -102 -7z"/>
<path d="M3227 1248 c-25 -19 -29 -54 -7 -73 15 -13 106 -44 133 -45 19 0 44
39 40 64 -5 22 -15 29 -70 46 -77 24 -74 23 -96 8z"/>
<path d="M3101 1172 c-5 -9 -16 -43 -24 -75 -15 -56 -15 -59 4 -78 40 -40 78
-12 98 73 9 42 9 62 1 78 -14 26 -65 28 -79 2z"/>
</g>
</svg>
